<?xml version="1.0" standalone="no"?>
<!DOCTYPE svg PUBLIC "-//W3C//DTD SVG 20010904//EN"
 "http://www.w3.org/TR/2001/REC-SVG-20010904/DTD/svg10.dtd">
<svg version="1.0" xmlns="http://www.w3.org/2000/svg"
 width="500.000000pt" height="500.000000pt" viewBox="0 0 500.000000 500.000000"
 preserveAspectRatio="xMidYMid meet">

<g transform="translate(0.000000,500.000000) scale(0.100000,-0.100000)"
fill="#000000" stroke="none">
<path d="M1623 1434 c-95 -48 -97 -200 -4 -249 41 -21 109 -19 147 4 74 45 84
155 21 219 -28 28 -44 36 -84 39 -32 2 -59 -2 -80 -13z"/>
<path d="M2643 1430 c-43 -26 -63 -68 -63 -131 0 -48 3 -55 40 -91 36 -34 46
-38 92 -38 93 0 156 67 145 152 -14 104 -127 162 -214 108z"/>
</g>
</svg>
