<?xml version="1.0" encoding="utf-8"?>
<svg viewBox="0 0 500 500" xmlns="http://www.w3.org/2000/svg">
  <g id="figuras" transform="matrix(1, 0, 0, 1, 7.105427357601002e-15, 7.105427357601002e-15)">
    <path d="M 295.516 132.431 C 283.716 136.931 263.016 144.731 249.516 149.731 C 236.016 154.731 211.716 163.831 195.516 169.831 C 179.316 175.931 157.916 183.831 148.016 187.431 C 138.116 191.131 128.416 194.731 126.516 195.531 C 124.616 196.331 113.116 200.631 101.016 205.031 C 88.916 209.531 76.316 214.231 73.016 215.431 C 69.716 216.731 60.616 220.131 52.716 223.031 C 44.916 225.931 38.516 228.631 38.516 229.031 C 38.516 229.431 48.016 238.631 59.716 249.631 C 108.216 295.131 133.416 318.731 176.516 359.031 C 232.516 411.431 232.116 411.031 232.816 411.031 C 233.416 411.031 233.516 410.831 240.616 386.731 L 245.816 369.031 L 356.516 369.031 C 417.416 369.031 469.216 368.731 471.616 368.431 C 475.616 367.931 476.316 368.131 479.216 370.931 C 482.616 374.131 485.916 374.831 488.616 372.731 C 494.616 368.131 492.016 360.031 484.416 359.831 C 482.016 359.731 480.616 360.431 479.016 362.431 L 476.816 365.131 L 362.716 365.731 C 266.016 366.131 248.416 366.031 248.016 364.831 C 247.716 364.131 253.416 343.931 260.616 320.031 C 267.816 296.131 279.516 257.231 286.516 233.631 C 293.616 210.131 299.616 190.631 299.716 190.431 C 299.916 190.231 333.316 190.031 373.816 189.931 L 447.616 189.831 L 450.216 192.431 C 453.416 195.731 456.916 195.731 460.016 192.531 C 463.216 189.431 463.216 185.631 460.016 182.531 C 456.816 179.231 454.016 179.431 450.316 183.031 L 447.316 186.031 L 374.316 186.031 L 301.316 186.031 L 302.016 182.931 C 302.416 181.231 306.516 167.431 311.116 152.231 C 315.716 137.031 319.516 124.531 319.516 124.331 C 319.516 123.431 315.116 124.931 295.516 132.431 Z M 285.516 156.931 C 285.516 157.731 275.316 191.731 236.016 321.531 C 230.916 338.531 225.716 355.631 224.516 359.531 C 223.416 363.331 222.016 367.131 221.616 367.931 C 220.916 369.031 211.116 360.331 180.916 331.931 C 159.016 311.331 133.816 287.831 125.016 279.531 C 89.416 246.331 76.416 233.731 77.216 232.931 C 77.916 232.231 132.116 211.831 231.516 174.931 C 252.116 167.231 271.716 159.931 275.016 158.631 C 281.416 156.031 285.516 155.431 285.516 156.931 Z" style="fill: rgb(255, 255, 255);"/>
    <path d="M 54.554 257.967 C 54.554 258.967 55.054 262.667 55.554 266.367 C 56.954 275.867 62.054 313.367 63.154 322.267 C 63.254 323.467 63.654 325.667 63.954 327.267 C 64.254 328.767 65.254 335.667 66.054 342.567 C 66.854 349.467 67.754 356.167 68.054 357.567 C 68.254 358.967 69.154 364.967 70.054 370.967 C 70.854 376.967 72.054 382.367 72.554 383.067 C 73.254 383.867 78.554 384.567 87.854 384.967 C 105.454 385.767 126.654 387.267 140.554 388.567 C 150.554 389.567 194.854 392.567 198.354 392.567 C 199.454 392.567 198.554 391.167 195.454 388.267 C 192.854 385.967 182.054 375.867 171.254 365.867 L 151.754 347.567 L 127.954 347.367 L 104.054 347.067 L 103.254 332.567 C 102.854 324.567 102.254 313.967 101.954 308.967 L 101.354 299.867 L 92.754 292.067 C 87.954 287.767 79.354 279.767 73.554 274.167 C 57.454 258.467 54.554 256.067 54.554 257.967 Z" style="fill: rgb(115, 115, 115);"/>
    <path d="M 249.054 177.667 C 239.754 181.467 222.654 188.367 211.054 192.967 C 199.554 197.567 170.554 209.167 146.654 218.667 L 103.154 236.067 L 111.154 236.767 C 129.154 238.367 157.454 240.667 178.954 242.167 L 201.954 243.767 L 205.454 239.967 C 207.354 237.767 217.954 226.167 229.054 214.067 C 240.054 201.967 253.554 187.267 258.954 181.267 C 264.354 175.367 268.154 170.567 267.354 170.667 C 266.654 170.667 258.454 173.867 249.054 177.667 Z" style="fill: rgb(153, 26, 230);"/>
  </g>
  <g transform="matrix(0.10000000149011613, 0, 0, -0.10000000149011613, -7.446179866790764, 487.56671142578125)" fill="#000000" stroke="none" id="gato">
    <path d="M 3286.096 4558.897 C 3218.096 4541.897 3122.096 4458.897 3122.096 4417.897 C 3122.096 4406.897 3124.096 4397.897 3126.096 4397.897 C 3129.096 4397.897 3152.096 4416.897 3179.096 4438.897 C 3239.096 4490.897 3278.096 4507.897 3341.096 4507.897 C 3401.096 4507.897 3446.096 4475.897 3463.096 4418.897 C 3485.096 4345.897 3449.096 4275.897 3273.096 4053.897 C 3226.096 3993.896 3171.096 3926.896 3151.096 3904.896 L 3116.096 3865.896 L 2973.096 4091.897 C 2894.096 4216.897 2828.096 4316.897 2826.096 4314.897 C 2823.096 4312.897 2829.096 4262.897 2838.096 4203.897 C 2846.096 4144.897 2852.096 4094.897 2850.096 4093.897 C 2842.096 4086.897 2410.096 3936.896 2407.096 3939.896 C 2406.096 3941.896 2381.096 3983.896 2353.096 4032.897 C 2325.096 4082.897 2302.096 4115.897 2302.096 4106.897 C 2302.096 4093.897 2353.096 3699.896 2393.096 3409.896 C 2400.096 3355.896 2408.096 3327.896 2416.096 3330.896 C 2422.096 3332.896 2486.096 3353.896 2557.096 3377.896 C 2629.096 3400.896 2692.096 3423.896 2697.096 3427.896 C 2703.096 3432.896 2795.096 3465.896 2902.096 3502.896 C 3166.096 3593.896 3252.096 3626.896 3252.096 3639.896 C 3252.096 3645.896 3234.096 3678.896 3212.096 3713.896 C 3190.096 3748.896 3172.096 3782.896 3172.096 3788.896 C 3172.096 3794.896 3220.096 3861.896 3279.096 3936.896 C 3467.096 4176.897 3522.096 4276.897 3522.096 4380.897 C 3522.096 4412.897 3515.096 4446.897 3503.096 4467.897 C 3467.096 4535.897 3367.096 4577.897 3286.096 4558.897 Z" style="fill: rgb(255, 255, 255); transform-box: fill-box; transform-origin: 50% 50%;" transform="matrix(0.999906, 0.01373, -0.01373, 0.999906, 0, -0.000003)"/>
    <g transform="matrix(0.999906, 0.01373, -0.01373, 0.999906, 1819.567749, 587.896484)" fill="#000000" stroke="none" style="transform-origin: 1100px 3359.18px;" id="olhos">
      <ellipse style="stroke: rgb(0, 0, 0); fill: rgb(115, 115, 115);" transform="matrix(0.999906, -0.01373, -0.01373, -0.999906, -596.978846, -94.216034)" cx="1292.261" cy="-3289.017" rx="52.693" ry="52.694"/>
      <ellipse style="stroke: rgb(0, 0, 0); fill: rgb(153, 26, 230);" transform="matrix(1, 0, 0, -1, 0, 0)" cx="1014.465" cy="-3257.322" rx="52.693" ry="52.694"/>
      <animateMotion path="M 22.416 -22.415 C -330.314 -61.337 24.876 98.22 40.227 0.001" calcMode="linear" dur="2s" fill="freeze" begin="-0.02s"/>
    </g>
    <animateMotion path="M 0 0 C -34.318 -41.182 -97.489 -12.242 -98.744 34.369" calcMode="linear" dur="0.63s" fill="freeze" begin="2.05s"/>
    <animateMotion path="M -96.383 33.622 L -198.115 70.233" calcMode="linear" begin="2.68s" dur="0.87s" fill="freeze"/>
    <animateMotion path="M -203.226 72.474 C -200.418 -17.393 -104.487 4.46 -105.468 35.864" calcMode="linear" begin="3.59s" dur="0.76s" fill="freeze"/>
  </g>
  <g transform="matrix(0.10388499498367311, 0, 0, -0.10219701379537584, 48.74676132202149, 541.1953735351562)" fill="#000000" stroke="none" style="" id="nome">
    <g id="asi">
      <path d="M 2698.448 3268.026 C 2693.448 3255.026 2637.448 3117.026 2574.448 2960.026 C 2510.448 2803.026 2460.448 2674.026 2462.448 2672.026 C 2468.448 2666.026 2584.448 2662.026 2594.448 2668.026 C 2599.448 2672.026 2613.448 2700.026 2624.448 2730.026 L 2645.448 2785.026 L 2772.448 2785.026 L 2900.448 2785.026 L 2920.448 2728.026 C 2934.448 2689.026 2947.448 2670.026 2961.448 2666.026 C 2991.448 2658.026 3060.448 2659.026 3074.448 2668.026 C 3082.448 2673.026 3052.448 2759.026 2971.448 2960.026 C 2907.448 3117.026 2852.448 3255.026 2847.448 3268.026 C 2838.448 3288.026 2831.448 3290.026 2772.448 3290.026 C 2713.448 3290.026 2706.448 3288.026 2698.448 3268.026 Z M 2816.448 3003.026 C 2833.448 2958.026 2847.448 2918.026 2847.448 2915.026 C 2847.448 2912.026 2813.448 2910.026 2772.448 2910.026 C 2731.448 2910.026 2697.448 2912.026 2697.448 2915.026 C 2697.448 2919.026 2725.448 2994.026 2756.448 3074.026 C 2771.448 3111.026 2777.448 3103.026 2816.448 3003.026 Z" style="fill: rgb(255, 255, 255);"/>
      <path d="M 3397.148 3300.027 C 3286.148 3280.027 3208.148 3173.027 3236.148 3078.027 C 3254.148 3020.027 3291.148 2985.027 3380.148 2940.027 C 3498.148 2881.027 3519.148 2851.027 3472.148 2805.027 C 3437.148 2769.027 3381.148 2772.027 3304.148 2811.027 C 3235.148 2846.027 3237.148 2846.027 3197.148 2768.027 C 3175.148 2727.027 3176.148 2725.027 3243.148 2692.027 C 3306.148 2660.027 3405.148 2646.027 3468.148 2659.027 C 3573.148 2682.027 3613.148 2714.027 3637.148 2797.027 C 3666.148 2892.027 3614.148 2969.027 3481.148 3031.027 C 3389.148 3073.027 3367.148 3092.027 3367.148 3124.027 C 3367.148 3177.027 3438.148 3195.027 3522.148 3165.027 C 3544.148 3157.027 3565.148 3150.027 3569.148 3150.027 C 3573.148 3150.027 3588.148 3173.027 3602.148 3200.027 L 3628.148 3251.027 L 3581.148 3271.027 C 3526.148 3296.027 3446.148 3308.027 3397.148 3300.027 Z" style="fill: rgb(255, 255, 255);"/>
      <path d="M 3842.82 2980.027 L 3842.82 2670.027 L 3864.741 2665.027 C 3877.132 2661.027 3905.724 2660.027 3929.552 2662.027 L 3971.488 2665.027 L 3974.347 2978.027 L 3976.253 3290.027 L 3909.537 3290.027 L 3842.82 3290.027 L 3842.82 2980.027 Z" style="fill: rgb(255, 255, 255);"/>
    </g>
    <g id="code">
      <path d="M 2855.127 2327.298 C 2768.127 2284.298 2719.127 2203.298 2719.127 2103.298 C 2719.127 1953.298 2819.127 1849.298 2963.127 1849.298 C 3095.127 1849.298 3191.127 1936.298 3209.127 2070.298 C 3235.127 2267.298 3031.127 2415.298 2855.127 2327.298 Z M 3019.127 2238.298 C 3106.127 2202.298 3118.127 2038.298 3038.127 1975.298 C 2988.127 1935.298 2884.127 1955.298 2855.127 2010.298 C 2823.127 2070.298 2830.127 2156.298 2870.127 2204.298 C 2912.127 2254.298 2957.127 2264.298 3019.127 2238.298 Z" style="fill: rgb(153, 26, 230);"/>
      <path d="M 2175.436 2411.728 C 2151.436 2388.728 2150.436 2381.728 2150.436 2273.728 C 2150.436 2164.728 2149.436 2159.728 2125.436 2138.728 C 2094.436 2111.728 2094.436 2103.728 2124.436 2074.728 C 2147.436 2053.728 2149.436 2043.728 2152.436 1933.728 C 2155.436 1822.728 2157.436 1813.728 2179.436 1795.728 C 2195.436 1782.728 2218.436 1776.728 2251.436 1776.728 L 2300.436 1776.728 L 2300.436 1810.728 C 2300.436 1840.728 2297.436 1845.728 2273.436 1848.728 L 2245.436 1851.728 L 2240.436 1956.728 C 2236.436 2034.728 2230.436 2069.728 2217.436 2089.728 C 2208.436 2104.728 2204.436 2116.728 2209.436 2116.728 C 2226.436 2116.728 2234.436 2151.728 2239.436 2256.728 L 2245.436 2361.728 L 2273.436 2364.728 C 2297.436 2367.728 2300.436 2372.728 2300.436 2402.728 L 2300.436 2436.728 L 2250.436 2436.728 C 2209.436 2436.728 2194.436 2431.728 2175.436 2411.728 Z" style="fill: rgb(153, 26, 230);"/>
      <path d="M 4127.456 2428.43 C 4127.456 2401.43 4131.456 2393.43 4145.456 2393.43 C 4180.456 2393.43 4187.456 2372.43 4187.456 2273.43 C 4187.456 2203.43 4191.456 2172.43 4203.456 2155.43 C 4217.456 2135.43 4217.456 2131.43 4203.456 2111.43 C 4191.456 2094.43 4187.456 2063.43 4187.456 1993.43 C 4187.456 1894.43 4180.456 1873.43 4145.456 1873.43 C 4131.456 1873.43 4127.456 1865.43 4127.456 1838.43 C 4127.456 1803.43 4127.456 1803.43 4173.456 1803.43 C 4261.456 1803.43 4277.456 1832.43 4277.456 1990.43 C 4277.456 2086.43 4279.456 2095.43 4297.456 2100.43 C 4311.456 2104.43 4317.456 2114.43 4317.456 2133.43 C 4317.456 2152.43 4311.456 2162.43 4297.456 2166.43 C 4279.456 2171.43 4277.456 2180.43 4277.456 2276.43 C 4277.456 2431.43 4260.456 2463.43 4176.456 2463.43 L 4127.456 2463.43 L 4127.456 2428.43 Z" style="fill: rgb(153, 26, 230);"/>
      <path d="M 2403.528 2322.298 C 2309.528 2275.298 2262.528 2200.298 2262.528 2098.298 C 2262.528 1961.298 2381.528 1850.298 2528.528 1849.298 C 2580.528 1849.298 2682.528 1875.298 2682.528 1889.298 C 2682.528 1891.298 2672.528 1912.298 2661.528 1937.298 L 2639.528 1981.298 L 2603.528 1966.298 C 2501.528 1923.298 2379.528 1994.298 2379.528 2095.298 C 2379.528 2217.298 2495.528 2281.298 2622.528 2229.298 C 2632.528 2225.298 2644.528 2236.298 2660.528 2265.298 C 2682.528 2305.298 2682.528 2308.298 2665.528 2320.298 C 2638.528 2340.298 2582.528 2353.298 2521.528 2353.298 C 2479.528 2353.298 2450.528 2346.298 2403.528 2322.298 Z" style="fill: rgb(153, 26, 230);"/>
      <path d="M 3286.859 2104.973 L 3286.859 1859.973 L 3369.859 1859.973 C 3483.859 1859.973 3547.859 1880.973 3601.859 1934.973 C 3700.859 2032.973 3696.859 2188.973 3594.859 2286.973 C 3542.859 2336.973 3500.859 2349.973 3386.859 2349.973 L 3286.859 2349.973 L 3286.859 2104.973 Z M 3496.859 2230.973 C 3529.859 2207.973 3556.859 2152.973 3556.859 2109.973 C 3556.859 2036.973 3489.859 1959.973 3425.859 1959.973 L 3396.859 1959.973 L 3396.859 2110.973 L 3396.859 2261.973 L 3434.859 2255.973 C 3454.859 2251.973 3482.859 2240.973 3496.859 2230.973 Z" style="fill: rgb(153, 26, 230);"/>
      <path d="M 3788.992 2354.649 C 3785.992 2344.649 3785.992 1906.649 3788.992 1888.649 C 3791.992 1866.649 3793.992 1865.649 3928.992 1868.649 L 4064.992 1871.649 L 4064.992 1916.649 L 4064.992 1961.649 L 3976.992 1964.649 L 3888.992 1967.649 L 3891.992 2014.649 L 3894.992 2061.649 L 3977.992 2064.649 L 4059.992 2067.649 L 4059.992 2116.649 L 4059.992 2166.649 L 3973.992 2166.649 L 3888.992 2166.649 L 3891.992 2214.649 L 3894.992 2261.649 L 3979.992 2266.649 L 4064.992 2271.649 L 4067.992 2314.649 L 4070.992 2356.649 L 3930.992 2356.649 C 3852.992 2356.649 3789.992 2355.649 3788.992 2354.649 Z" style="fill: rgb(153, 26, 230);"/>
    </g>
  </g>
</svg>